<svg xmlns="http://www.w3.org/2000/svg" xmlns:xlink="http://www.w3.org/1999/xlink" id="Layer_1" x="0px" y="0px" viewBox="0 0 412.8 165.2" style="enable-background:new 0 0 412.8 165.2;" xml:space="preserve"> <style type="text/css"> .st0{fill:#0F122B;} </style> <title>GLG</title> <path class="st0" d="M0,82.7C0,35.9,29.7,0,78.7,0c41.5,0,67.6,21.5,72.7,56.8h-44.8c-2.4-10.2-12-18.6-26.2-18.6 c-22.2,0-33.5,18.7-33.5,44.6s12.9,45.3,35.3,45.3c16.9,0,25.1-9.1,27.9-19.7H80.4V75.5h74.1v86h-30.8l-3.6-16.8h-0.4 c-10,14.4-26.2,20.6-45.4,20.6c-21.3,0-39.5-7.3-52.3-21C7.4,128.6,0,107.3,0,82.7 M160.9,2.9h46.4v118.8h56.2v39.7H160.9V2.9z M378.4,144.6H378c-10,14.4-26.2,20.6-45.5,20.6c-21.3,0-39.5-7.3-52.3-21.1c-14.6-15.5-21.9-36.8-21.9-61.4C258.3,35.9,288,0,337,0 c41.5,0,67.6,21.5,72.7,56.8h-44.8c-2.4-10.2-12-18.6-26.2-18.6c-22.2,0-33.5,18.6-33.5,44.6s12.9,45.3,35.3,45.3 c16.9,0,25-9.1,27.9-19.7h-29.7V75.5h74.1v86H382L378.4,144.6z"></path> </svg>