<svg width="185" height="17" viewBox="0 0 185 17" fill="none" xmlns="http://www.w3.org/2000/svg">
<path d="M4.5 12.96H5.36C6.34667 12.96 7.05333 12.8333 7.48 12.58C7.90667 12.3267 8.12 11.92 8.12 11.36C8.12 10.8 7.90667 10.3933 7.48 10.14C7.05333 9.88667 6.34667 9.76 5.36 9.76H4.5V12.96ZM4.5 6.84H5.22C6.44667 6.84 7.06 6.35333 7.06 5.38C7.06 4.40667 6.44667 3.92 5.22 3.92H4.5V6.84ZM0.58 0.92H6.42C7.80667 0.92 8.86 1.25333 9.58 1.92C10.3 2.58667 10.66 3.54667 10.66 4.8C10.66 5.56 10.52 6.19333 10.24 6.7C9.97333 7.19333 9.56 7.61333 9 7.96C9.56 8.06667 10.0333 8.23333 10.42 8.46C10.82 8.67333 11.14 8.94 11.38 9.26C11.6333 9.58 11.8133 9.94 11.92 10.34C12.0267 10.74 12.08 11.1667 12.08 11.62C12.08 12.3267 11.9533 12.9533 11.7 13.5C11.46 14.0467 11.1133 14.5067 10.66 14.88C10.22 15.2533 9.68 15.5333 9.04 15.72C8.4 15.9067 7.68 16 6.88 16H0.58V0.92ZM17.7305 8.46C17.7305 9.06 17.8438 9.61333 18.0705 10.12C18.2971 10.6267 18.6038 11.0667 18.9905 11.44C19.3771 11.8133 19.8238 12.1067 20.3305 12.32C20.8505 12.52 21.3971 12.62 21.9705 12.62C22.5438 12.62 23.0838 12.52 23.5905 12.32C24.1105 12.1067 24.5638 11.8133 24.9505 11.44C25.3505 11.0667 25.6638 10.6267 25.8905 10.12C26.1171 9.61333 26.2305 9.06 26.2305 8.46C26.2305 7.86 26.1171 7.30667 25.8905 6.8C25.6638 6.29333 25.3505 5.85333 24.9505 5.48C24.5638 5.10667 24.1105 4.82 23.5905 4.62C23.0838 4.40667 22.5438 4.3 21.9705 4.3C21.3971 4.3 20.8505 4.40667 20.3305 4.62C19.8238 4.82 19.3771 5.10667 18.9905 5.48C18.6038 5.85333 18.2971 6.29333 18.0705 6.8C17.8438 7.30667 17.7305 7.86 17.7305 8.46ZM13.6305 8.46C13.6305 7.34 13.8371 6.3 14.2505 5.34C14.6638 4.36667 15.2371 3.52 15.9705 2.8C16.7038 2.08 17.5771 1.52 18.5905 1.12C19.6171 0.706666 20.7438 0.499999 21.9705 0.499999C23.1838 0.499999 24.3038 0.706666 25.3305 1.12C26.3571 1.52 27.2371 2.08 27.9705 2.8C28.7171 3.52 29.2971 4.36667 29.7105 5.34C30.1238 6.3 30.3305 7.34 30.3305 8.46C30.3305 9.58 30.1238 10.6267 29.7105 11.6C29.2971 12.56 28.7171 13.4 27.9705 14.12C27.2371 14.84 26.3571 15.4067 25.3305 15.82C24.3038 16.22 23.1838 16.42 21.9705 16.42C20.7438 16.42 19.6171 16.22 18.5905 15.82C17.5771 15.4067 16.7038 14.84 15.9705 14.12C15.2371 13.4 14.6638 12.56 14.2505 11.6C13.8371 10.6267 13.6305 9.58 13.6305 8.46ZM36.2266 8.46C36.2266 9.06 36.3399 9.61333 36.5666 10.12C36.7932 10.6267 37.0999 11.0667 37.4866 11.44C37.8732 11.8133 38.3199 12.1067 38.8266 12.32C39.3466 12.52 39.8932 12.62 40.4666 12.62C41.0399 12.62 41.5799 12.52 42.0866 12.32C42.6066 12.1067 43.0599 11.8133 43.4466 11.44C43.8466 11.0667 44.1599 10.6267 44.3866 10.12C44.6132 9.61333 44.7266 9.06 44.7266 8.46C44.7266 7.86 44.6132 7.30667 44.3866 6.8C44.1599 6.29333 43.8466 5.85333 43.4466 5.48C43.0599 5.10667 42.6066 4.82 42.0866 4.62C41.5799 4.40667 41.0399 4.3 40.4666 4.3C39.8932 4.3 39.3466 4.40667 38.8266 4.62C38.3199 4.82 37.8732 5.10667 37.4866 5.48C37.0999 5.85333 36.7932 6.29333 36.5666 6.8C36.3399 7.30667 36.2266 7.86 36.2266 8.46ZM32.1266 8.46C32.1266 7.34 32.3332 6.3 32.7466 5.34C33.1599 4.36667 33.7332 3.52 34.4666 2.8C35.1999 2.08 36.0732 1.52 37.0866 1.12C38.1132 0.706666 39.2399 0.499999 40.4666 0.499999C41.6799 0.499999 42.7999 0.706666 43.8266 1.12C44.8532 1.52 45.7332 2.08 46.4666 2.8C47.2132 3.52 47.7932 4.36667 48.2066 5.34C48.6199 6.3 48.8266 7.34 48.8266 8.46C48.8266 9.58 48.6199 10.6267 48.2066 11.6C47.7932 12.56 47.2132 13.4 46.4666 14.12C45.7332 14.84 44.8532 15.4067 43.8266 15.82C42.7999 16.22 41.6799 16.42 40.4666 16.42C39.2399 16.42 38.1132 16.22 37.0866 15.82C36.0732 15.4067 35.1999 14.84 34.4666 14.12C33.7332 13.4 33.1599 12.56 32.7466 11.6C32.3332 10.6267 32.1266 9.58 32.1266 8.46ZM55.2227 7.14L60.0027 0.92H64.8427L58.8627 8.06L65.4027 16H60.3227L55.2227 9.46V16H51.3027V0.92H55.2227V7.14ZM70.7825 8.76L65.2825 0.92H69.9625L72.7625 5.04L75.5425 0.92H80.2225L74.7025 8.76V16H70.7825V8.76ZM83.9414 8.46C83.9414 9.06 84.0547 9.61333 84.2814 10.12C84.5081 10.6267 84.8147 11.0667 85.2014 11.44C85.5881 11.8133 86.0347 12.1067 86.5414 12.32C87.0614 12.52 87.6081 12.62 88.1814 12.62C88.7547 12.62 89.2947 12.52 89.8014 12.32C90.3214 12.1067 90.7747 11.8133 91.1614 11.44C91.5614 11.0667 91.8747 10.6267 92.1014 10.12C92.3281 9.61333 92.4414 9.06 92.4414 8.46C92.4414 7.86 92.3281 7.30667 92.1014 6.8C91.8747 6.29333 91.5614 5.85333 91.1614 5.48C90.7747 5.10667 90.3214 4.82 89.8014 4.62C89.2947 4.40667 88.7547 4.3 88.1814 4.3C87.6081 4.3 87.0614 4.40667 86.5414 4.62C86.0347 4.82 85.5881 5.10667 85.2014 5.48C84.8147 5.85333 84.5081 6.29333 84.2814 6.8C84.0547 7.30667 83.9414 7.86 83.9414 8.46ZM79.8414 8.46C79.8414 7.34 80.0481 6.3 80.4614 5.34C80.8747 4.36667 81.4481 3.52 82.1814 2.8C82.9147 2.08 83.7881 1.52 84.8014 1.12C85.8281 0.706666 86.9547 0.499999 88.1814 0.499999C89.3947 0.499999 90.5147 0.706666 91.5414 1.12C92.5681 1.52 93.4481 2.08 94.1814 2.8C94.9281 3.52 95.5081 4.36667 95.9214 5.34C96.3347 6.3 96.5414 7.34 96.5414 8.46C96.5414 9.58 96.3347 10.6267 95.9214 11.6C95.5081 12.56 94.9281 13.4 94.1814 14.12C93.4481 14.84 92.5681 15.4067 91.5414 15.82C90.5147 16.22 89.3947 16.42 88.1814 16.42C86.9547 16.42 85.8281 16.22 84.8014 15.82C83.7881 15.4067 82.9147 14.84 82.1814 14.12C81.4481 13.4 80.8747 12.56 80.4614 11.6C80.0481 10.6267 79.8414 9.58 79.8414 8.46ZM102.938 0.92V9.12C102.938 9.56 102.951 10.0133 102.978 10.48C103.018 10.9333 103.118 11.3467 103.278 11.72C103.451 12.0933 103.718 12.4 104.078 12.64C104.438 12.8667 104.944 12.98 105.598 12.98C106.251 12.98 106.751 12.8667 107.098 12.64C107.458 12.4 107.724 12.0933 107.898 11.72C108.071 11.3467 108.171 10.9333 108.198 10.48C108.238 10.0133 108.258 9.56 108.258 9.12V0.92H112.158V9.66C112.158 12.0067 111.618 13.72 110.538 14.8C109.471 15.88 107.824 16.42 105.598 16.42C103.371 16.42 101.718 15.88 100.638 14.8C99.5575 13.72 99.0175 12.0067 99.0175 9.66V0.92H102.938ZM119.246 7.66H119.986C120.759 7.66 121.353 7.5 121.766 7.18C122.179 6.86 122.386 6.4 122.386 5.8C122.386 5.2 122.179 4.74 121.766 4.42C121.353 4.1 120.759 3.94 119.986 3.94H119.246V7.66ZM127.866 16H122.986L119.246 10.2V16H115.326V0.92H121.426C122.266 0.92 122.999 1.04667 123.626 1.3C124.253 1.54 124.766 1.87333 125.166 2.3C125.579 2.72667 125.886 3.22 126.086 3.78C126.299 4.34 126.406 4.94 126.406 5.58C126.406 6.72667 126.126 7.66 125.566 8.38C125.019 9.08667 124.206 9.56667 123.126 9.82L127.866 16ZM133.426 12.68H134.326C135.006 12.68 135.612 12.5733 136.146 12.36C136.679 12.1467 137.126 11.8533 137.486 11.48C137.859 11.1067 138.139 10.6667 138.326 10.16C138.526 9.64 138.626 9.07333 138.626 8.46C138.626 7.86 138.526 7.3 138.326 6.78C138.126 6.26 137.839 5.81333 137.466 5.44C137.106 5.06667 136.659 4.77333 136.126 4.56C135.592 4.34667 134.992 4.24 134.326 4.24H133.426V12.68ZM129.506 0.92H135.306C136.332 0.92 137.292 1.12667 138.186 1.54C139.092 1.95333 139.879 2.50667 140.546 3.2C141.226 3.88 141.759 4.68 142.146 5.6C142.532 6.50667 142.726 7.46 142.726 8.46C142.726 9.44667 142.532 10.4 142.146 11.32C141.772 12.2267 141.246 13.0267 140.566 13.72C139.899 14.4133 139.112 14.9667 138.206 15.38C137.312 15.7933 136.346 16 135.306 16H129.506V0.92ZM152.784 10.4L151.024 5.38L149.264 10.4H152.784ZM153.824 13.38H148.224L147.324 16H143.144L148.884 0.92H153.164L158.904 16H154.724L153.824 13.38ZM165.675 4.24V16H161.755V4.24H158.535V0.92H168.895V4.24H165.675ZM178.135 10.4L176.375 5.38L174.615 10.4H178.135ZM179.175 13.38H173.575L172.675 16H168.495L174.235 0.92H178.515L184.255 16H180.075L179.175 13.38Z" fill="#1C55FB"/>
</svg>
