<svg width="34" height="20" viewBox="0 0 34 20" fill="none" xmlns="http://www.w3.org/2000/svg">
<g clip-path="url(#clip0_62_18968)">
<path d="M29.8024 0H27.3847L24.5521 7.32432V1.69465H21.3926V8.35339C21.3926 8.6733 21.4441 8.90606 21.5342 9.1913L15.8233 1.69465H13.0738V9.92423L10.3917 2.96935H6.58842L0 20H4.25197L5.55242 16.5751H11.1979L12.4964 20H16.9613L14.8636 14.5635H16.2343V7.79874C16.2343 7.54816 16.164 7.29857 16.0927 7.06681L21.7669 14.5635H24.5541V10.8275H25.9001L26.7261 8.65151H30.3155L31.1415 10.8275H33.9781L29.8024 0ZM6.82613 13.1501L8.17313 9.48844C8.24345 9.29926 8.33754 9.016 8.38607 8.75749C8.43163 9.016 8.50394 9.29926 8.57525 9.48844L9.8965 13.1501H6.82613ZM27.5363 6.47353L28.391 4.14401C28.4366 4.02417 28.496 3.8449 28.5267 3.67949C28.5564 3.8449 28.601 4.02417 28.6476 4.14401L29.4884 6.47353H27.5373H27.5363Z" fill="#009640"/>
</g>
<defs>
<clipPath id="clip0_62_18968">
<rect width="33.9771" height="20" fill="white"/>
</clipPath>
</defs>
</svg>
