<svg width="29" height="28" viewBox="0 0 29 28" fill="none" xmlns="http://www.w3.org/2000/svg">
<path d="M0.0817871 0H28.0818V14H0.0817871V0Z" fill="#E87722"/>
<path d="M13.9839 0H28.0818V14H13.9839V0Z" fill="#005C7D"/>
<path d="M0.0817871 14H28.0818V28H0.0817871V14Z" fill="#E87722"/>
<path d="M0.0817871 14H13.9839V28H0.0817871V14Z" fill="#005C7D"/>
<path d="M6.09925 12.6197C9.9923 12.6197 12.2216 10.623 12.2216 7.08347C12.2216 3.57415 9.9923 1.57746 6.09925 1.57746H2.03983V12.6197H6.09925ZM3.43733 2.66656H6.0327C9.19372 2.66656 10.7576 4.14895 10.7576 7.08347C10.7576 10.0482 9.16045 11.5306 6.0327 11.5306H3.43733V2.66656Z" fill="white"/>
<path d="M16.9209 12.4225H16.1377V1.77465L21.0328 10.3521L25.9279 1.77465V12.4225H25.1447V4.92958L21.0328 12.4225L16.9209 5.12676V12.4225Z" fill="white"/>
<path d="M11.2426 16.3662H3.80207V21.2958H9.08878V22.2817H3.80207V26.4225H3.01885V15.5775H11.2426V16.3662Z" fill="white"/>
<path d="M11.5363 21.7887L10.5573 20.8028L10.1657 21.1972L10.851 21.7887L10.1657 22.4789L10.5573 22.7746L11.5363 21.7887Z" fill="white"/>
<path d="M13.2007 21.7887L12.2216 20.8028L11.83 21.1972L12.5154 21.7887L11.83 22.4789L12.2216 22.7746L13.2007 21.7887Z" fill="white"/>
<path d="M27.1028 21.7887L26.1237 20.8028L25.7321 21.1972L26.4175 21.7887L25.7321 22.4789L26.1237 22.7746L27.1028 21.7887Z" fill="white"/>
<path d="M17.9 21.2958L20.9349 15.6761L23.9699 21.2958H22.893L20.9349 17.7465L19.0748 21.2958H17.9Z" fill="white"/>
<path d="M18.5853 22.1831H17.4105L15.0608 26.6197H16.2356L18.5853 22.1831Z" fill="white"/>
<path d="M24.4594 22.1831H23.3825L25.6342 26.6197H26.7112L24.4594 22.1831Z" fill="white"/>
</svg>
