<svg width="93" height="22" viewBox="0 0 93 22" fill="none" xmlns="http://www.w3.org/2000/svg">
<g clip-path="url(#clip0_62_18983)">
<path d="M59.1098 0.623047C55.1845 0.623047 53.4483 1.99983 53.4483 5.11254V8.05647H51.2425V12.0062H53.4483V21.0098H58.203V12.0062H60.899V8.05647H58.203V5.6032C58.203 4.61109 58.8324 4.1067 59.8206 4.1067C60.5353 4.1067 60.8333 4.14399 61.2176 4.2539V0.892907C60.6676 0.728047 59.7971 0.623047 59.1098 0.623047ZM3.76896 1.35903L0.631836 21.0098H5.41105L7.07765 10.0436L9.47952 21.0098H15.0185L8.81778 1.35903H3.76896ZM15.7293 1.35903L12.4451 11.1476L15.1901 19.8077L17.2243 10.0436L18.8174 21.0098H23.5721L20.7045 1.35903H15.7293ZM40.7037 1.35903L34.6501 21.0098H39.4293L40.3361 18.1885H46.5613L47.4437 21.0098H52.1984L46.1692 1.35903H40.7037ZM90.7997 7.36956C89.9272 7.36956 89.2312 8.06236 89.2312 8.93965C89.2312 9.81694 89.9272 10.5097 90.7997 10.5097C91.6722 10.5097 92.3683 9.81694 92.3683 8.93965C92.3683 8.06236 91.6722 7.36956 90.7997 7.36956ZM90.7997 7.71302C91.4742 7.71302 92.0252 8.23311 92.0252 8.93965C92.0252 9.64227 91.4742 10.1908 90.7997 10.1908C90.1253 10.1908 89.5743 9.64227 89.5743 8.93965C89.5743 8.23311 90.1253 7.71302 90.7997 7.71302ZM43.4977 7.76208L45.2869 13.7971H41.6351L43.4977 7.76208ZM67.9575 7.95834C63.5332 7.95834 61.0951 11.4528 61.0951 14.7294C61.0951 18.0079 63.3116 21.3778 67.7615 21.3778C72.4044 21.3778 73.924 18.7057 74.5014 16.8637H70.3104C70.0663 17.4692 69.4947 17.8941 67.9575 17.8941C66.5821 17.8941 65.7086 16.9364 65.6782 15.6126H74.8935C74.922 15.3957 74.918 15.1464 74.918 14.9256C74.918 11.2899 72.9005 7.95834 67.9575 7.95834ZM82.5648 7.95834C78.1424 7.95834 75.7023 11.4528 75.7023 14.7294C75.7023 18.0079 77.9208 21.3778 82.3687 21.3778C87.0107 21.3778 88.5577 18.7057 89.1331 16.8637H84.9421C84.6951 17.4692 84.102 17.8941 82.5648 17.8941C81.1913 17.8941 80.3149 16.9364 80.2855 15.6126H89.5253C89.5527 15.3957 89.5498 15.1464 89.5498 14.9256C89.5498 11.2899 87.5067 7.95834 82.5648 7.95834ZM90.138 8.13007V9.74923H90.4811V9.11138H90.7752L91.1429 9.74923H91.535L91.1183 9.11138C91.4085 9.09176 91.5595 8.92199 91.5595 8.62073C91.5595 8.18797 91.3223 8.13007 90.9468 8.13007H90.138ZM30.1649 8.17914C25.8798 8.17914 23.7436 11.5009 23.7436 14.7785C23.7436 18.056 25.8798 21.3287 30.1649 21.3287C32.3629 21.3287 33.3756 20.8106 34.0618 20.3965V16.1523C33.458 16.7067 32.705 17.06 31.1943 17.06C29.5738 17.06 28.4983 16.2651 28.4983 14.7785C28.4983 13.2918 29.5738 12.3006 31.1943 12.3006C32.7874 12.3006 33.404 12.6794 34.0618 13.0612V8.93965C33.2354 8.58049 31.8404 8.17914 30.1649 8.17914ZM90.4811 8.42447H90.8487C91.0085 8.42447 91.2409 8.4176 91.2409 8.59619C91.2409 8.77479 91.1282 8.81699 90.9468 8.81699H90.4811V8.42447ZM67.884 11.1721C69.3379 11.1721 70.0339 12.1191 70.1143 12.8894H65.7272C65.7547 12.1191 66.4262 11.1721 67.884 11.1721ZM82.5158 11.1721C83.9726 11.1721 84.6627 12.1191 84.7461 12.8894H80.359C80.3855 12.1191 81.0599 11.1721 82.5158 11.1721Z" fill="#CC0033"/>
</g>
<defs>
<clipPath id="clip0_62_18983">
<rect width="93" height="22" fill="white"/>
</clipPath>
</defs>
</svg>
