<svg width="49" height="20" viewBox="0 0 49 20" fill="none" xmlns="http://www.w3.org/2000/svg">
<path fill-rule="evenodd" clip-rule="evenodd" d="M6.93238 0.00103887C3.08312 0.0674054 0.0164777 3.24164 0.0828443 7.0909L0.205101 14.1818H6.87177C10.8214 14.1818 14.0233 10.98 14.0233 7.0303C14.0233 3.13345 10.8286 -0.0661382 6.93238 0.00103887ZM6.95224 2.38386C4.43068 2.42773 2.42187 4.50701 2.46496 7.02859L2.54578 11.7576H6.8718C9.4826 11.7576 11.5991 9.6411 11.5991 7.0303V6.95056C11.5991 4.39698 9.50544 2.33945 6.95224 2.38386Z" fill="#2F2927"/>
<path fill-rule="evenodd" clip-rule="evenodd" d="M41.4778 0.0010334C45.3271 0.067558 48.3937 3.2418 48.3273 7.091L48.2051 14.1819H41.5384C37.5888 14.1819 34.3869 10.98 34.3869 7.03039C34.3869 3.13361 37.5815 -0.0659647 41.4778 0.0010334ZM41.458 2.38385C43.9795 2.42788 45.9884 4.50719 45.9453 7.02873L45.8645 11.7577H41.5384C38.9276 11.7577 36.8112 9.64119 36.8112 7.03039V6.95061C36.8112 4.3971 38.9048 2.33958 41.458 2.38385Z" fill="#2F2927"/>
<path d="M0.2051 14.6667H2.62934V20H0.2051V14.6667Z" fill="#3FB1C2"/>
<path d="M14.7506 5.69697H17.1748V13.9394H14.7506V5.69697Z" fill="#2F2927"/>
<path d="M31.4778 5.69697H33.9021V13.9394H31.4778V5.69697Z" fill="#2F2927"/>
<path d="M17.1748 4.96964H14.7506L15.0728 3.76105C15.1808 3.35636 15.3406 2.96734 15.5484 2.60369L15.6195 2.47932C16.0029 1.80835 16.559 1.25228 17.2299 0.868873C17.6745 0.614835 18.1606 0.441702 18.6657 0.357524L18.9264 0.314075C19.6903 0.18675 20.472 0.213571 21.2255 0.392959L21.3041 0.411676C22.1772 0.619561 22.9948 1.01438 23.7006 1.56888L24.3263 2.06055L25.0392 1.50041C25.6879 0.990698 26.4391 0.623264 27.2395 0.42317C28.0345 0.224399 28.8646 0.194764 29.6717 0.33719L29.8593 0.370289C30.2896 0.446225 30.7066 0.58404 31.0974 0.77945L31.1478 0.804618C31.9915 1.22646 32.6756 1.91056 33.0974 2.75423C33.2295 3.01837 33.3343 3.29524 33.4104 3.58058L33.7809 4.96964H31.3566L31.0031 4.2121C30.6865 3.53368 30.1104 3.01108 29.4044 2.76191C28.7863 2.54376 28.1111 2.55034 27.4974 2.78048L27.1863 2.89713C26.7472 3.06181 26.3768 3.37039 26.1355 3.77257C25.6655 4.55587 25.4172 5.45218 25.4172 6.36566V13.9393H23.1142V6.22588C23.1142 5.40108 22.9112 4.58896 22.523 3.8612C22.2795 3.40468 21.8739 3.05595 21.386 2.88375L21.0251 2.75637C20.416 2.54141 19.7517 2.54141 19.1427 2.75637C18.4267 3.00908 17.8424 3.53912 17.5213 4.22718L17.1748 4.96964Z" fill="#3FB1C2"/>
</svg>
