<svg width="57" height="16" viewBox="0 0 57 16" fill="none" xmlns="http://www.w3.org/2000/svg">
<g clip-path="url(#clip0_62_18971)">
<path d="M16.0006 16C15.6435 16 15.2969 15.8005 15.1236 15.4591L8.97989 3.16639L2.83089 15.4591C2.58935 15.9422 2.00123 16.1365 1.51813 15.895C1.03503 15.6534 0.840741 15.0653 1.08229 14.5822L8.10297 0.54086C8.26575 0.210043 8.60707 0 8.97989 0C9.35272 0 9.68879 0.210043 9.85682 0.54086L16.8775 14.5822C17.119 15.0653 16.9248 15.6534 16.4417 15.895C16.2999 15.9632 16.1529 16 16.0058 16" fill="#262F4D"/>
<path d="M40.0815 15.0236C40.0815 14.6666 40.2811 14.32 40.6224 14.1467L52.9152 8.00296L40.6224 1.85921C40.1393 1.61767 39.945 1.02955 40.1866 0.546448C40.4281 0.0633503 41.0162 -0.130939 41.4993 0.11061L55.5407 7.13129C55.8715 7.29932 56.0815 7.63539 56.0815 8.00821C56.0815 8.38104 55.8715 8.71711 55.5407 8.88514L41.4993 15.9058C41.0162 16.1474 40.4281 15.9531 40.1866 15.47C40.1183 15.3282 40.0815 15.1812 40.0815 15.0341" fill="#262F4D"/>
<path d="M36.3954 0.966196C36.3954 0.966196 36.3954 0.924188 36.3954 0.908435C36.3954 0.892681 36.3954 0.882179 36.3954 0.866426C36.3954 0.850673 36.3954 0.83492 36.3901 0.819166C36.3901 0.803413 36.3849 0.78766 36.3796 0.771907C36.3796 0.761405 36.3744 0.745651 36.3691 0.735149C36.3691 0.714145 36.3586 0.698392 36.3534 0.677388C36.3534 0.666885 36.3481 0.656383 36.3429 0.645881C36.3376 0.624877 36.3271 0.609124 36.3219 0.588119C36.3219 0.577617 36.3114 0.567115 36.3061 0.551362C36.3009 0.535609 36.2904 0.519856 36.2799 0.504102C36.2746 0.488349 36.2641 0.477847 36.2536 0.462094C36.2484 0.451592 36.2379 0.435839 36.2326 0.425336C36.2221 0.409583 36.2116 0.39383 36.1958 0.378077C36.1906 0.367575 36.1853 0.362324 36.1748 0.351821C36.1591 0.336068 36.1486 0.320315 36.1328 0.304562C36.1276 0.299311 36.1223 0.288809 36.1118 0.283558C36.0961 0.267804 36.0803 0.257302 36.0698 0.241549C36.0593 0.231047 36.0541 0.225796 36.0436 0.220545C36.0331 0.210043 36.0173 0.199541 36.0016 0.189038C35.9911 0.178536 35.9753 0.168034 35.9648 0.162783C35.9543 0.152281 35.9385 0.14703 35.928 0.141779C35.9123 0.131277 35.8965 0.120775 35.8755 0.115523C35.8755 0.115523 35.8703 0.115523 35.865 0.110272C35.8598 0.110272 35.8493 0.105021 35.844 0.0997703C35.8283 0.0892681 35.8073 0.0840171 35.7863 0.0735149C35.7758 0.0682639 35.76 0.0630128 35.7495 0.0577617C35.7338 0.0525107 35.7128 0.0472596 35.697 0.0420085C35.6812 0.0420085 35.6655 0.0315064 35.6497 0.0315064C35.634 0.0315064 35.6182 0.0262553 35.6077 0.0210043C35.5867 0.0210043 35.571 0.0157532 35.55 0.0105021C35.5395 0.0105021 35.5237 0.0105021 35.5132 0.0105021C35.4922 0.0105021 35.4712 0.0105021 35.4502 0.0105021C35.4449 0.0105021 35.4344 0.0105021 35.4292 0.0105021H35.4187C35.3977 0.0105021 35.3767 0.0105021 35.3557 0.0105021C35.3452 0.0105021 35.3294 0.0105021 35.3189 0.0105021C35.3032 0.0105021 35.2874 0.0105021 35.2664 0.0157532C35.2507 0.0157532 35.2349 0.0210043 35.2191 0.0262553C35.2086 0.0262553 35.1929 0.0315064 35.1824 0.0367575C35.1614 0.0367575 35.1456 0.0472596 35.1299 0.0525107C35.1194 0.0525107 35.1089 0.0630128 35.0984 0.0630128C35.0774 0.0682639 35.0616 0.078766 35.0406 0.0840171C35.0301 0.0840171 35.0196 0.0945192 35.0039 0.0997703C34.9881 0.110272 34.9723 0.115523 34.9566 0.126026C34.9408 0.131277 34.9303 0.141779 34.9146 0.152281C34.9041 0.157532 34.8883 0.168034 34.8778 0.178536C34.8621 0.189038 34.8463 0.199541 34.8306 0.215294C34.8201 0.220545 34.8096 0.231047 34.8043 0.236298C34.7886 0.2468 34.7728 0.262553 34.7571 0.278307C34.7466 0.283558 34.7413 0.29406 34.7308 0.299311C34.7203 0.309813 34.7045 0.325566 34.694 0.341319C34.6835 0.351821 34.6783 0.362324 34.6678 0.372826C34.6573 0.383328 34.6468 0.399081 34.6415 0.409583C34.631 0.425336 34.6205 0.435839 34.61 0.451592C34.6048 0.462094 34.5943 0.472596 34.589 0.483098C34.5785 0.498851 34.568 0.519856 34.5575 0.535609C34.5575 0.535609 34.5575 0.54086 34.5523 0.546111L28.4085 12.8389L22.249 0.54086C22.249 0.54086 22.249 0.535609 22.2438 0.530358C22.2333 0.514605 22.2228 0.4936 22.2123 0.477847C22.207 0.467345 22.1965 0.451592 22.1913 0.44109C22.1808 0.425336 22.1702 0.414834 22.165 0.399081C22.1545 0.383328 22.144 0.372826 22.1335 0.357073C22.123 0.34657 22.1177 0.336068 22.1072 0.325566C22.0967 0.309813 22.081 0.299311 22.0705 0.283558C22.06 0.273055 22.0547 0.267804 22.0442 0.257302C22.0285 0.241549 22.018 0.231047 22.0022 0.215294C21.9917 0.210043 21.9812 0.199541 21.9707 0.194289C21.955 0.183787 21.9392 0.173285 21.9287 0.162783C21.9182 0.152281 21.9024 0.14703 21.8867 0.136528C21.8762 0.131277 21.8604 0.120775 21.8499 0.115523C21.8342 0.105021 21.8132 0.0997703 21.7974 0.0892681C21.7869 0.0892681 21.7764 0.078766 21.7659 0.0735149C21.7449 0.0630128 21.7239 0.0577617 21.7082 0.0525107C21.6977 0.0525107 21.6871 0.0472596 21.6766 0.0420085C21.6556 0.0367575 21.6399 0.0315064 21.6189 0.0262553C21.6084 0.0262553 21.5979 0.0210043 21.5821 0.0157532C21.5664 0.0157532 21.5506 0.0105021 21.5296 0.00525107C21.5139 0.00525107 21.4981 0 21.4824 0C21.4666 0 21.4561 0 21.4404 0C21.4193 0 21.4036 0 21.3826 0H21.3721C21.3616 0 21.3563 0 21.3458 0C21.3248 0 21.3038 0 21.2828 0C21.2723 0 21.2566 0 21.2461 0C21.2251 0 21.2093 0 21.1935 0.0105021C21.1778 0.0105021 21.162 0.0157532 21.1463 0.0210043C21.1305 0.0210043 21.1148 0.0262553 21.099 0.0315064C21.0833 0.0315064 21.0623 0.0420085 21.0465 0.0472596C21.036 0.0472596 21.0203 0.0577617 21.0098 0.0630128C20.9888 0.0735149 20.973 0.078766 20.952 0.0892681C20.9467 0.0892681 20.9362 0.0945192 20.931 0.0997703C20.931 0.0997703 20.9257 0.0997703 20.9205 0.105021C20.9047 0.115523 20.8837 0.126026 20.868 0.136528C20.8575 0.141779 20.847 0.152281 20.8312 0.157532C20.8155 0.168034 20.805 0.178536 20.7892 0.183787C20.7735 0.194289 20.763 0.204792 20.7472 0.215294C20.7367 0.225796 20.7262 0.231047 20.721 0.241549C20.7052 0.252051 20.6894 0.267804 20.6789 0.278307C20.6737 0.288809 20.6632 0.29406 20.6579 0.304562C20.6422 0.320315 20.6317 0.336068 20.6159 0.351821C20.6107 0.362324 20.6002 0.372826 20.5949 0.378077C20.5844 0.39383 20.5739 0.409583 20.5582 0.425336C20.5477 0.435839 20.5424 0.451592 20.5319 0.462094C20.5267 0.477847 20.5162 0.488349 20.5057 0.504102C20.4952 0.519856 20.4899 0.535609 20.4794 0.556613C20.4742 0.567115 20.4689 0.577617 20.4637 0.588119C20.4584 0.609124 20.4479 0.624877 20.4426 0.645881C20.4426 0.656383 20.4321 0.666885 20.4321 0.677388C20.4269 0.693141 20.4216 0.714145 20.4164 0.729898C20.4164 0.7404 20.4111 0.756154 20.4059 0.766656C20.4059 0.782409 20.4006 0.798162 20.3954 0.813915C20.3954 0.829669 20.3901 0.845422 20.3901 0.866426C20.3901 0.876928 20.3901 0.892681 20.3901 0.903183C20.3901 0.924188 20.3901 0.945192 20.3901 0.966196V0.976698V15.0181C20.3901 15.5589 20.8312 15.9947 21.3721 15.9947C21.9129 15.9947 22.3488 15.5589 22.3488 15.0181V5.12504L27.5158 15.4591C27.6839 15.79 28.0199 16 28.3928 16C28.7656 16 29.1017 15.79 29.2697 15.4591L34.4367 5.12504V15.0233C34.4367 15.5642 34.8726 16 35.4134 16C35.9543 16 36.3901 15.5642 36.3901 15.0233V0.976698V0.966196" fill="#262F4D"/>
</g>
<defs>
<clipPath id="clip0_62_18971">
<rect width="55.1047" height="16" fill="white" transform="translate(0.977051)"/>
</clipPath>
</defs>
</svg>
