<svg width="24" height="24" viewBox="0 0 24 24" fill="none" xmlns="http://www.w3.org/2000/svg">
<g clip-path="url(#clip0_1805_27181)">
<path d="M11.0003 23.97C8.09091 23.97 5.30065 22.8142 3.24337 20.757C1.1861 18.6997 0.0303345 15.9094 0.0303345 13C0.0303345 10.0906 1.1861 7.30033 3.24337 5.24305C5.30065 3.18578 8.09091 2.03001 11.0003 2.03001H12.0003L12.0133 3.03001L12.0003 12H21.9703V13C21.9672 15.9085 20.8104 18.6969 18.7538 20.7535C16.6972 22.8101 13.9088 23.9668 11.0003 23.97ZM10.0123 4.08501C8.3333 4.27125 6.74099 4.92784 5.41869 5.97921C4.09639 7.03057 3.09786 8.43396 2.53805 10.0278C1.97823 11.6217 1.87989 13.3413 2.25434 14.9886C2.62879 16.6359 3.46081 18.144 4.65463 19.3392C5.84844 20.5345 7.35552 21.3684 9.00237 21.7448C10.6492 22.1212 12.3689 22.025 13.9635 21.4671C15.558 20.9092 16.9626 19.9124 18.0156 18.5914C19.0685 17.2703 19.7271 15.6788 19.9153 14H10.0003L10.0123 4.08501Z" fill="black"/>
<path d="M16.0187 2.28821C17.3924 2.64758 18.6456 3.36606 19.6498 4.36988C20.654 5.37371 21.3729 6.6267 21.7327 8.00021H16.0187V2.28821ZM14.0187 0.0342102V10.0002H23.9867C23.9739 7.36069 22.9195 4.83297 21.0528 2.96672C19.1862 1.10046 16.6583 0.0465661 14.0187 0.0342102Z" fill="black"/>
</g>
<defs>
<clipPath id="clip0_1805_27181">
<rect width="24" height="24" fill="white"/>
</clipPath>
</defs>
</svg>
