<svg width="24" height="24" viewBox="0 0 24 24" fill="none" xmlns="http://www.w3.org/2000/svg">
<g clip-path="url(#clip0_1805_27252)">
<g clip-path="url(#clip1_1805_27252)">
<path d="M21 1.00008H2.99999C2.20434 1.00008 1.44128 1.31615 0.878672 1.87876C0.316063 2.44137 -7.62939e-06 3.20443 -7.62939e-06 4.00008L-7.62939e-06 23.0001H24V4.00008C24 3.20443 23.6839 2.44137 23.1213 1.87876C22.5587 1.31615 21.7956 1.00008 21 1.00008V1.00008ZM2.99999 3.00008H21C21.2652 3.00008 21.5196 3.10543 21.7071 3.29297C21.8946 3.48051 22 3.73486 22 4.00008V7.00008H1.99999V4.00008C1.99999 3.73486 2.10535 3.48051 2.29289 3.29297C2.48042 3.10543 2.73478 3.00008 2.99999 3.00008V3.00008ZM1.99999 21.0001V9.00008H22V21.0001H1.99999ZM4.99999 12.0001H19V14.0001H4.99999V12.0001ZM4.99999 16.0001H15V18.0001H4.99999V16.0001ZM2.99999 5.00008C2.99999 4.80229 3.05864 4.60896 3.16852 4.44451C3.2784 4.28006 3.43458 4.15188 3.61731 4.0762C3.80003 4.00051 4.0011 3.98071 4.19508 4.01929C4.38906 4.05788 4.56725 4.15312 4.7071 4.29297C4.84695 4.43282 4.94219 4.611 4.98078 4.80499C5.01936 4.99897 4.99956 5.20003 4.92387 5.38276C4.84818 5.56549 4.72001 5.72166 4.55556 5.83155C4.39111 5.94143 4.19777 6.00008 3.99999 6.00008C3.73478 6.00008 3.48042 5.89472 3.29289 5.70718C3.10535 5.51965 2.99999 5.26529 2.99999 5.00008ZM5.99999 5.00008C5.99999 4.80229 6.05864 4.60896 6.16852 4.44451C6.2784 4.28006 6.43458 4.15188 6.61731 4.0762C6.80004 4.00051 7.0011 3.98071 7.19508 4.01929C7.38906 4.05788 7.56725 4.15312 7.7071 4.29297C7.84695 4.43282 7.94219 4.611 7.98078 4.80499C8.01936 4.99897 7.99956 5.20003 7.92387 5.38276C7.84818 5.56549 7.72001 5.72166 7.55556 5.83155C7.39111 5.94143 7.19777 6.00008 6.99999 6.00008C6.73478 6.00008 6.48042 5.89472 6.29289 5.70718C6.10535 5.51965 5.99999 5.26529 5.99999 5.00008ZM8.99999 5.00008C8.99999 4.80229 9.05864 4.60896 9.16852 4.44451C9.2784 4.28006 9.43458 4.15188 9.61731 4.0762C9.80003 4.00051 10.0011 3.98071 10.1951 4.01929C10.3891 4.05788 10.5672 4.15312 10.7071 4.29297C10.847 4.43282 10.9422 4.611 10.9808 4.80499C11.0194 4.99897 10.9996 5.20003 10.9239 5.38276C10.8482 5.56549 10.72 5.72166 10.5556 5.83155C10.3911 5.94143 10.1978 6.00008 9.99999 6.00008C9.73478 6.00008 9.48042 5.89472 9.29289 5.70718C9.10535 5.51965 8.99999 5.26529 8.99999 5.00008Z" fill="black"/>
</g>
</g>
<defs>
<clipPath id="clip0_1805_27252">
<rect width="24" height="24" fill="white"/>
</clipPath>
<clipPath id="clip1_1805_27252">
<rect width="24" height="24" fill="white"/>
</clipPath>
</defs>
</svg>
