<svg width="24" height="24" viewBox="0 0 24 24" fill="none" xmlns="http://www.w3.org/2000/svg">
<g clip-path="url(#clip0_1805_27192)">
<path d="M11.9482 24.0096L11.5942 23.8526C11.2002 23.6796 2.00015 19.5246 2.00015 12.0006V5.47655C2.0005 4.84872 2.19894 4.23701 2.56719 3.72852C2.93545 3.22004 3.45475 2.84071 4.05115 2.64455L12.0002 0.009552L19.9492 2.64455C20.5456 2.84071 21.0649 3.22004 21.4331 3.72852C21.8014 4.23701 21.9998 4.84872 22.0002 5.47655V12.0006C22.0002 20.5776 12.7122 23.7556 12.3162 23.8876L11.9482 24.0096ZM12.0002 2.10655L4.68415 4.53255C4.4851 4.59757 4.31172 4.72391 4.18886 4.89348C4.06599 5.06305 3.99994 5.26715 4.00015 5.47655V12.0006C4.00015 17.4946 10.4402 21.0586 12.0472 21.8616C13.6512 21.2166 20.0002 18.2636 20.0002 12.0006V5.47655C20.0004 5.26715 19.9343 5.06305 19.8114 4.89348C19.6886 4.72391 19.5152 4.59757 19.3162 4.53255L12.0002 2.10655Z" fill="black"/>
<path d="M11.1113 14.542H11.0783C10.8252 14.5381 10.5755 14.483 10.3443 14.3798C10.1131 14.2767 9.90525 14.1278 9.73327 13.942L7.42728 11.542L8.86827 10.16L11.1123 12.5L16.2933 7.31898L17.7073 8.73299L12.4463 13.994C12.271 14.1691 12.0628 14.3077 11.8337 14.4017C11.6045 14.4958 11.359 14.5435 11.1113 14.542Z" fill="black"/>
</g>
<defs>
<clipPath id="clip0_1805_27192">
<rect width="24" height="24" fill="white"/>
</clipPath>
</defs>
</svg>
