<svg width="24" height="24" viewBox="0 0 24 24" fill="none" xmlns="http://www.w3.org/2000/svg">
<g clip-path="url(#clip0_1805_27166)">
<path d="M1.99999 20.9762V-0.0238037H-7.62939e-06V20.9762C-7.62939e-06 21.7718 0.316063 22.5349 0.878672 23.0975C1.44128 23.6601 2.20434 23.9762 2.99999 23.9762H24V21.9762H2.99999C2.73478 21.9762 2.48042 21.8708 2.29289 21.6833C2.10535 21.4958 1.99999 21.2414 1.99999 20.9762Z" fill="black"/>
<path d="M22.5 3.97604H17L19.793 6.76904L15.5 11.062L13.5 9.06204L6.28103 16.281L7.70003 17.7L13.505 11.9L15.505 13.9L21.212 8.19304L24 10.976V5.47604C24 5.07822 23.842 4.69669 23.5607 4.41538C23.2794 4.13408 22.8979 3.97604 22.5 3.97604Z" fill="black"/>
</g>
<defs>
<clipPath id="clip0_1805_27166">
<rect width="24" height="24" fill="white"/>
</clipPath>
</defs>
</svg>
