<svg width="16" height="16" viewBox="0 0 16 16" fill="none" xmlns="http://www.w3.org/2000/svg">
<g clip-path="url(#clip0_8932_55525)">
<path d="M14 2.66667H10V2C10 1.46957 9.78929 0.960859 9.41421 0.585786C9.03914 0.210714 8.53043 0 8 0C7.46957 0 6.96086 0.210714 6.58579 0.585786C6.21071 0.960859 6 1.46957 6 2V2.66667H2C1.46957 2.66667 0.960859 2.87738 0.585786 3.25245C0.210714 3.62753 0 4.13623 0 4.66667L0 16H16V4.66667C16 4.13623 15.7893 3.62753 15.4142 3.25245C15.0391 2.87738 14.5304 2.66667 14 2.66667V2.66667ZM7.33333 2C7.33333 1.82319 7.40357 1.65362 7.5286 1.5286C7.65362 1.40357 7.82319 1.33333 8 1.33333C8.17681 1.33333 8.34638 1.40357 8.4714 1.5286C8.59643 1.65362 8.66667 1.82319 8.66667 2V4H7.33333V2ZM14.6667 14.6667H1.33333V4.66667C1.33333 4.48986 1.40357 4.32029 1.5286 4.19526C1.65362 4.07024 1.82319 4 2 4H6V5.33333H10V4H14C14.1768 4 14.3464 4.07024 14.4714 4.19526C14.5964 4.32029 14.6667 4.48986 14.6667 4.66667V14.6667ZM2.66667 13.3333H7.33333V6.66667H2.66667V13.3333ZM4 8H6V12H4V8ZM8.66667 9.33333H13.3333V10.6667H8.66667V9.33333ZM8.66667 6.66667H13.3333V8H8.66667V6.66667ZM8.66667 12H12V13.3333H8.66667V12Z" fill="#121826"/>
</g>
<defs>
<clipPath id="clip0_8932_55525">
<rect width="16" height="16" fill="white"/>
</clipPath>
</defs>
</svg>
