<svg width="16" height="16" viewBox="0 0 16 16" fill="none" xmlns="http://www.w3.org/2000/svg">
<g clip-path="url(#clip0_1661_50208)">
<path d="M7.97194 16.0051L7.50722 15.6068C6.86656 15.0704 1.27259 10.2392 1.27259 6.70532C1.27259 3.00539 4.272 0.00598145 7.97194 0.00598145C11.6719 0.00598145 14.6713 3.00539 14.6713 6.70532C14.6713 10.2392 9.07731 15.0704 8.43931 15.6094L7.97194 16.0051ZM7.97194 1.45458C5.07341 1.45786 2.7245 3.80676 2.72122 6.70529C2.72122 8.92536 6.16284 12.4719 7.97194 14.0951C9.78106 12.4712 13.2227 8.92267 13.2227 6.70529C13.2194 3.80676 10.8705 1.45789 7.97194 1.45458Z" fill="#121826"/>
<path d="M7.97201 9.36069C6.50539 9.36069 5.31645 8.17175 5.31645 6.70512C5.31645 5.2385 6.50539 4.04956 7.97201 4.04956C9.43864 4.04956 10.6276 5.2385 10.6276 6.70512C10.6276 8.17175 9.43867 9.36069 7.97201 9.36069ZM7.97201 5.37731C7.2387 5.37731 6.64423 5.97178 6.64423 6.70509C6.64423 7.4384 7.2387 8.03287 7.97201 8.03287C8.70533 8.03287 9.2998 7.4384 9.2998 6.70509C9.2998 5.97178 8.70536 5.37731 7.97201 5.37731Z" fill="#121826"/>
</g>
<defs>
<clipPath id="clip0_1661_50208">
<rect width="16" height="16" fill="white"/>
</clipPath>
</defs>
</svg>
