<svg width="24" height="24" viewBox="0 0 24 24" fill="none" xmlns="http://www.w3.org/2000/svg">
<path d="M12 22C17.5228 22 22 17.5228 22 12C22 6.47715 17.5228 2 12 2C6.47715 2 2 6.47715 2 12C2 17.5228 6.47715 22 12 22Z" fill="black"/>
<g clip-path="url(#clip0_8234_96117)">
<path d="M12.9024 11.1554L16.9073 6.5H15.9583L12.4809 10.5422L9.70343 6.5H6.5L10.7 12.6125L6.5 17.4944H7.44908L11.1214 13.2257L14.0545 17.4944H17.2579L12.9022 11.1554H12.9024ZM11.6025 12.6663L11.177 12.0577L7.79105 7.21446H9.24879L11.9813 11.1231L12.4068 11.7318L15.9587 16.8124H14.501L11.6025 12.6666V12.6663Z" fill="white"/>
</g>
<defs>
<clipPath id="clip0_8234_96117">
<rect width="10.7579" height="11" fill="white" transform="translate(6.5 6.5)"/>
</clipPath>
</defs>
</svg>
