<svg width="20" height="20" viewBox="0 0 20 20" fill="none" xmlns="http://www.w3.org/2000/svg">
<g clip-path="url(#clip0_2505_8648)">
<path d="M16.6668 0H4.16679C3.50375 0 2.86787 0.263392 2.39903 0.732233C1.93019 1.20107 1.66679 1.83696 1.66679 2.5V17.5C1.66679 18.163 1.93019 18.7989 2.39903 19.2678C2.86787 19.7366 3.50375 20 4.16679 20H18.3335V1.66667C18.3335 1.22464 18.1579 0.800716 17.8453 0.488155C17.5327 0.175595 17.1088 0 16.6668 0V0ZM16.6668 15H6.66679V1.66667H16.6668V15ZM4.16679 1.66667H5.00013V15H4.18096C3.89157 15.0025 3.60481 15.0552 3.33346 15.1558V2.5C3.33346 2.27899 3.42126 2.06702 3.57754 1.91074C3.73382 1.75446 3.94578 1.66667 4.16679 1.66667ZM4.16679 18.3333C3.94693 18.3333 3.73597 18.2465 3.57988 18.0916C3.42379 17.9368 3.33522 17.7265 3.33346 17.5067H3.34596C3.34508 17.3967 3.36599 17.2876 3.40747 17.1857C3.44896 17.0838 3.5102 16.9912 3.58767 16.9131C3.66514 16.835 3.7573 16.773 3.85884 16.7307C3.96039 16.6884 4.0693 16.6667 4.17929 16.6667H16.6668V18.3333H4.16679Z" fill="#3E4B5D"/>
</g>
<defs>
<clipPath id="clip0_2505_8648">
<rect width="20" height="20" fill="white"/>
</clipPath>
</defs>
</svg>
