<svg xmlns="http://www.w3.org/2000/svg" fill="none" viewBox="0 0 93 107"><path fill="#fff" d="m.035 83.877 46 22.666 46-22.666V.543h-92v83.334z"/><path fill="#fff" d="m.035 83.877 46 22.666 46-22.666V.543h-92v83.334z"/><path fill="#000" d="M12.83 13.33q-.37 0-.69-.09-.33-.09-.58-.25-.25-.17-.41-.37-.17-.2-.22-.43l.94-.28q.09.24.32.41.23.17.58.18.37.01.61-.16.23-.17.23-.43 0-.23-.18-.39-.19-.16-.51-.24l-.64-.17q-.35-.09-.63-.28-.27-.18-.42-.46-.16-.27-.16-.63 0-.7.46-1.09.46-.38 1.3-.38.47 0 .82.13.36.14.59.39.24.25.37.6l-.93.28q-.09-.24-.31-.4-.23-.17-.57-.17-.35 0-.55.16-.2.16-.2.46 0 .23.16.36.16.13.43.2l.64.16q.63.16.98.56t.35.89q0 .43-.21.75-.21.33-.6.51-.4.18-.97.18Zm3.3-.08v-4.9h1.82q.52 0 .92.21.4.2.62.57.23.37.23.85t-.22.85q-.22.37-.59.58-.38.22-.88.22h-.94v1.62Zm.96-2.51h.92q.32 0 .53-.21.2-.21.2-.55 0-.33-.22-.55-.23-.2-.59-.2h-.84Zm3.96 2.51v-4.9h1.82q.52 0 .92.2.4.21.62.56.23.35.23.82 0 .46-.24.82-.23.36-.64.56-.4.2-.92.2h-.83v1.74Zm2.7 0-1.13-1.97.73-.52 1.48 2.49Zm-1.74-2.61h.87q.22 0 .39-.09t.27-.25q.1-.16.1-.37 0-.31-.22-.51-.23-.19-.59-.19h-.82Zm4.26 2.61v-4.9h.96v4.9Zm2.72 0v-4.9h1l2.4 3.29V8.35h.95v4.9h-.95L29.95 9.9v3.35Zm8.39.08q-.75 0-1.33-.32-.58-.33-.9-.9-.33-.57-.33-1.31 0-.74.33-1.31.32-.57.9-.9.58-.32 1.33-.32.45 0 .82.13.38.13.67.37.29.23.49.53l-.78.49q-.12-.19-.32-.33-.19-.15-.42-.23-.23-.09-.46-.09-.46 0-.82.21-.36.22-.56.59-.2.37-.2.86 0 .48.2.86t.56.59q.36.22.84.22.37 0 .66-.15.29-.15.46-.41.17-.27.17-.62l.91-.14q0 .69-.29 1.18-.28.49-.78.75-.5.25-1.15.25Zm.16-1.96v-.74h2.06v.59l-.52.15Zm5.66 1.88v-.71q0-.2.12-.44.13-.25.35-.49.23-.25.53-.46l.74-.53q.15-.11.29-.24.14-.13.22-.29.09-.16.09-.3 0-.19-.09-.33-.08-.15-.25-.23-.17-.09-.42-.09-.21 0-.37.09-.16.08-.27.22-.1.14-.15.3l-.98-.17q.07-.35.3-.65.23-.3.6-.49.38-.18.85-.18.55 0 .94.2.39.19.61.53.21.34.21.79t-.25.81q-.25.35-.68.66l-.67.48q-.2.14-.35.31-.14.17-.22.37h2.23v.84Zm6.66.08q-.6 0-1.05-.32-.46-.33-.71-.9-.26-.57-.26-1.31 0-.74.26-1.31.25-.57.71-.9.45-.32 1.04-.32.6 0 1.06.32.45.33.71.9.26.57.26 1.31 0 .74-.26 1.31-.26.57-.71.9-.46.32-1.05.32Zm0-.86q.31 0 .56-.22.25-.21.39-.59.14-.37.14-.86t-.14-.87q-.14-.38-.39-.59-.25-.21-.57-.21-.31 0-.56.21-.24.21-.38.59t-.14.87q0 .49.14.86.14.38.39.59.24.22.56.22Zm3.32.78v-.71q0-.2.13-.44.13-.25.35-.49.22-.25.53-.46l.74-.53q.15-.11.29-.24.13-.13.22-.29.09-.16.09-.3 0-.19-.09-.33-.09-.15-.25-.23-.17-.09-.42-.09-.21 0-.37.09-.17.08-.27.22-.11.14-.15.3L53 9.58q.07-.35.3-.65.23-.3.6-.49.38-.18.85-.18.55 0 .94.2.39.19.61.53.21.34.21.79t-.25.81q-.25.35-.68.66l-.67.48q-.2.14-.35.31-.14.17-.22.37h2.23v.84Zm6.45.08q-.33 0-.69-.11-.35-.11-.63-.33-.29-.23-.42-.56l.87-.26q.16.23.37.33.21.11.45.11.36 0 .59-.22.22-.22.22-.59 0-.35-.22-.58-.22-.23-.58-.23-.22 0-.4.1-.18.1-.28.23l-.86-.19.29-2.68h2.78v.87h-1.96l-.14 1.17q.19-.1.42-.17.23-.06.5-.06.4 0 .73.2.33.19.52.52t.19.77q0 .5-.22.88-.23.38-.62.59-.39.21-.91.21Z" style="white-space:pre"/><g fill="#000" style="white-space:pre"><path d="M31.06 46V34.8h3.92q1.15 0 2.03.35.88.35 1.38 1.07.49.72.49 1.83 0 .59-.31 1.11-.31.52-.85.94.76.4 1.17 1.04.41.65.41 1.6 0 1.05-.48 1.78t-1.33 1.1q-.85.38-1.98.38Zm2.51-2.27h1.65q.66 0 1.04-.35.38-.34.38-.88 0-.58-.4-.91-.4-.33-1.1-.33h-1.57Zm0-4.53h1.33q.61 0 .98-.31.36-.31.36-.87 0-.58-.39-.89-.39-.31-1.05-.31h-1.23Zm10.87 6.99q-1.25 0-2.21-.53-.96-.54-1.51-1.48-.54-.95-.54-2.18 0-1.25.55-2.19.55-.95 1.51-1.47.96-.53 2.23-.53 1.13 0 2.05.54.91.55 1.44 1.62.54 1.07.54 2.67h-6.02l.28-.3q0 .54.22.96.22.41.62.63.4.21.9.21.59 0 1-.26.41-.26.57-.66l2.21.75q-.32.75-.91 1.25-.58.49-1.33.73-.76.24-1.6.24Zm-1.62-4.89-.26-.32h3.59l-.23.32q0-.6-.24-.95t-.59-.5q-.35-.15-.7-.15t-.71.15q-.36.15-.61.5t-.25.95Zm9.74 4.89q-.78 0-1.46-.23-.68-.23-1.18-.66-.49-.42-.73-1.03l2.05-.86q.2.41.57.61.37.2.75.2.4 0 .63-.13.22-.14.22-.38 0-.25-.23-.4-.23-.14-.66-.25l-.69-.18q-1.12-.29-1.72-.95-.6-.67-.6-1.55 0-1.23.85-1.9.84-.67 2.35-.67.85 0 1.49.22.65.23 1.09.63.44.41.63.96l-1.98.81q-.11-.32-.46-.49-.34-.16-.76-.16-.35 0-.54.15-.19.15-.19.41 0 .19.23.32.23.14.68.25l.85.21q.75.19 1.26.58.51.4.77.92t.26 1.11q0 .75-.44 1.3t-1.23.86q-.78.3-1.81.3Zm8.1 0q-1.42 0-2.12-.68-.7-.68-.7-1.94V35.5h2.5v7.44q0 .48.18.71.17.22.54.22.14 0 .34-.07.19-.07.35-.18l.86 1.82q-.38.32-.92.54-.53.21-1.03.21ZM56.6 40.1V38h5.56v2.1ZM18.93 62.21q-1.44 0-2.49-.55-1.04-.54-1.6-1.54t-.56-2.38V50.8h2.57v6.94q0 .64.26 1.11.25.46.73.72.47.25 1.12.25.64 0 1.12-.25.48-.26.74-.72.26-.47.26-1.11V50.8h2.57v6.94q0 1.38-.57 2.38-.56 1-1.63 1.54-1.06.55-2.52.55Zm9.47-.02q-.78 0-1.46-.23-.68-.23-1.18-.66-.49-.42-.73-1.03l2.05-.86q.2.41.57.61.37.2.75.2.4 0 .63-.13.22-.14.22-.38 0-.25-.23-.4-.23-.14-.66-.25l-.69-.18q-1.12-.29-1.72-.95-.6-.67-.6-1.55 0-1.23.85-1.9.84-.67 2.35-.67.85 0 1.49.22.65.23 1.09.63.44.41.63.96l-1.98.81q-.11-.32-.46-.49-.34-.16-.76-.16-.35 0-.54.15-.19.15-.19.41 0 .19.23.32.23.14.68.25l.85.21q.75.19 1.26.58.51.4.77.92t.26 1.11q0 .75-.44 1.3t-1.23.86q-.78.3-1.81.3Zm9.41-.19-.06-1.73v-2.25q0-.64-.11-1.12-.12-.48-.4-.76-.29-.27-.87-.27-.45 0-.78.21-.34.21-.58.58l-2.17-.72q.27-.6.74-1.08.47-.48 1.16-.76.69-.29 1.6-.29 1.25 0 2.11.46.87.47 1.3 1.3.43.83.43 1.97L40.15 62Zm-2.17.19q-1.43 0-2.21-.64-.79-.64-.79-1.81 0-1.26.82-1.88.82-.63 2.29-.63h2.19v1.6h-1.25q-.8 0-1.15.23-.35.22-.35.62 0 .29.26.46.27.16.73.16.46 0 .82-.2.35-.2.55-.53.2-.34.2-.74h.62q0 1.6-.67 2.48-.67.88-2.06.88ZM41.7 62V50.8h2.5v9.71L44.07 62Zm4.77.19q-.99 0-1.67-.5-.67-.51-1-1.45-.34-.94-.34-2.24 0-1.31.34-2.25.33-.93 1-1.44.68-.5 1.67-.5 1.12 0 1.93.5.82.51 1.25 1.44.43.94.43 2.25 0 1.3-.43 2.24-.43.94-1.25 1.45-.81.5-1.93.5Zm-.64-2.3q.48 0 .85-.24.36-.24.59-.67.22-.42.22-.98t-.21-.98q-.2-.43-.58-.67-.38-.24-.86-.24t-.85.24q-.38.24-.59.67-.2.44-.2.98 0 .56.2.98.21.43.58.67.37.24.85.24ZM51.44 62v-8h2.5v8Zm1.25-9.02q-.56 0-.98-.43-.43-.42-.43-.98 0-.59.43-1 .42-.41.98-.41.58 0 .99.41.42.41.42 1 0 .56-.42.98-.41.43-.99.43ZM55.72 62V50.8h2.49V62Zm4.27 0v-8h2.49v8Zm1.25-9.02q-.56 0-.99-.43-.42-.42-.42-.98 0-.59.42-1 .43-.41.99-.41.57 0 .99.41.41.41.41 1 0 .56-.41.98-.42.43-.99.43Zm6.46 9.21q-1.42 0-2.12-.68-.7-.68-.7-1.94V51.5h2.5v7.44q0 .48.18.71.17.22.54.22.14 0 .34-.07.19-.07.35-.18l.86 1.82q-.38.32-.92.54-.53.21-1.03.21Zm-4.06-6.09V54h5.56v2.1Zm9.26 9.29q-.51 0-1.08-.19-.57-.19-.95-.42l.93-2.03q.22.16.44.24.21.08.39.08.3 0 .54-.15.24-.15.39-.49l.94-2.22L76.85 54h2.77l-3.54 8.48q-.35.86-.73 1.52-.39.66-.95 1.02-.57.37-1.5.37Zm.94-3.39-3.74-8h2.77l2.51 6.21.85 1.79Z"/></g><path fill="#FF492C" d="M71.035.543h21v21h-21z"/><g clip-path="url(#a)"><path fill="#fff" fill-rule="evenodd" d="M86.086 8.585h-1.794c.049-.281.222-.438.574-.616l.331-.168c.591-.303.906-.644.906-1.2a.972.972 0 0 0-.407-.828c-.266-.2-.591-.298-.965-.298a1.5 1.5 0 0 0-.819.233 1.383 1.383 0 0 0-.542.59l.52.519c.201-.406.494-.606.879-.606.325 0 .526.168.526.4 0 .195-.098.357-.472.546l-.211.103c-.461.233-.781.498-.965.8-.185.298-.277.682-.277 1.142v.124h2.716v-.74zm-.245 1.6h-2.966l-1.483 2.57h2.966l1.483 2.57 1.484-2.57-1.484-2.57z" clip-rule="evenodd"/><path fill="#fff" fill-rule="evenodd" d="M81.644 14.472a3.433 3.433 0 0 1-3.43-3.428 3.433 3.433 0 0 1 3.43-3.427l1.174-2.456a6 6 0 0 0-7.176 5.883 6 6 0 0 0 6.002 5.999 5.978 5.978 0 0 0 3.535-1.15l-1.3-2.252a3.417 3.417 0 0 1-2.235.831z" clip-rule="evenodd"/><path stroke="#000" stroke-width="1.085" d="M71.524 1.21v19.868"/></g><path fill="#FFC800" d="M.035 84.063v-6.5l46 23.042 46-23.042v6.5l-46 22.48-46-22.48z"/><path fill="#FFF" d="M.035 78.109v-6.5l46 23.042 46-23.042v6.5l-46 22.48-46-22.48z"/><path fill="#FFF" d="M.035 72.174v-6.5l46 23.043 46-23.043v6.5l-46 22.48-46-22.48z"/><path stroke="#000" stroke-width="1.085" d="m91.492 83.54-45.457 22.398L.578 83.54V1.086h90.914V83.54zm.118-62.462H.66"/><defs><clipPath id="a"><path fill="#fff" d="M0 0h21v21H0z" transform="translate(71.035 .543)"/></clipPath></defs></svg>
